<svg width="113" height="75" viewBox="0 0 113 75" fill="none" xmlns="http://www.w3.org/2000/svg">
<path d="M75.3777 0.777994C67.2557 0.76596 59.3589 3.44677 52.9228 8.40098V8.39601L52.8968 8.41999C52.3741 8.81999 51.8628 9.23533 51.3628 9.66599C49.4568 11.092 46.0907 13.208 42.8987 13.208C40.4572 13.0253 38.0485 12.5351 35.7297 11.749C35.5637 11.695 35.3977 11.639 35.2297 11.587L35.1298 11.553V11.558C31.0579 10.3327 26.756 10.0767 22.5676 10.8107C18.3792 11.5446 14.4205 13.248 11.0079 15.7849C7.59528 18.3217 4.82337 21.6216 2.91364 25.4208C1.0039 29.22 0.00927734 33.4133 0.00927734 37.6655C0.00927734 41.9177 1.0039 46.111 2.91364 49.9102C4.82337 53.7094 7.59528 57.0093 11.0079 59.5461C14.4205 62.0829 18.3792 63.7864 22.5676 64.5203C26.756 65.2542 31.0579 64.9983 35.1298 63.773V63.778L35.2748 63.729C35.3978 63.691 35.5178 63.65 35.6398 63.611C37.9881 62.8109 40.428 62.311 42.9017 62.123C46.1017 62.123 49.4848 64.255 51.3868 65.681C51.8754 66.0997 52.3754 66.5053 52.8868 66.898L52.9277 66.935V66.927C57.5784 70.4963 63.0128 72.9058 68.7805 73.9557C74.5482 75.0056 80.4831 74.6656 86.0932 72.9639C91.7033 71.2622 96.827 68.2479 101.04 64.1708C105.252 60.0937 108.432 55.0713 110.316 49.5198C112.201 43.9683 112.734 38.0477 111.873 32.2487C111.013 26.4498 108.782 20.9396 105.367 16.1748C101.951 11.41 97.4492 7.52784 92.2339 4.85023C87.0186 2.17262 81.2402 0.776637 75.3777 0.777994V0.777994Z" fill="#008060"/>
<path d="M34.364 49.431C33.0398 49.431 31.7698 48.905 30.8334 47.9686C29.897 47.0322 29.371 45.7622 29.371 44.438V38.446C29.3702 37.0029 28.8955 35.6001 28.0199 34.453C27.1443 33.3059 25.9162 32.4781 24.5245 32.0968C23.1327 31.7155 21.6542 31.8018 20.3162 32.3425C18.9783 32.8831 17.8549 33.8482 17.1187 35.0893C16.3825 36.3305 16.0742 37.779 16.2413 39.2124C16.4084 40.6458 17.0415 41.9846 18.0435 43.0231C19.0454 44.0617 20.3606 44.7425 21.7871 44.9609C23.2135 45.1793 24.6722 44.9232 25.939 44.232L27.755 48.242C25.6216 49.3261 23.1926 49.684 20.8373 49.2613C18.4819 48.8385 16.3289 47.6583 14.7057 45.8999C13.0825 44.1416 12.0778 41.9013 11.8444 39.5197C11.611 37.1381 12.1615 34.7455 13.4124 32.7054C14.6633 30.6654 16.5461 29.0895 18.7746 28.2175C21.003 27.3454 23.4553 27.2248 25.7585 27.8741C28.0618 28.5233 30.0901 29.9068 31.5351 31.8143C32.9801 33.7218 33.7627 36.049 33.764 38.442V44.234C33.764 44.234 33.764 45.034 35.764 45.434L34.364 49.431Z" fill="white"/>
<path d="M44.5492 49.431L46.1492 45.437C44.9492 45.037 42.5492 43.837 42.5492 43.437V22.269H38.1582V44.638C38.2289 45.3394 38.4898 46.0082 38.9127 46.5721C39.3357 47.1361 39.9046 47.5738 40.5582 47.838C41.8571 48.4447 43.1896 48.9765 44.5492 49.431V49.431Z" fill="white"/>
<path d="M76.9042 49.431L78.5042 45.437C77.3042 45.037 74.9092 43.837 74.9092 43.437V22.269H70.5132V44.638C70.5838 45.3394 70.8447 46.0082 71.2677 46.5721C71.6907 47.1361 72.2596 47.5738 72.9132 47.838C74.2121 48.4446 75.5446 48.9765 76.9042 49.431V49.431Z" fill="white"/>
<path d="M57.5318 27.462C55.5387 27.4622 53.5833 28.0046 51.8748 29.0311C50.1664 30.0575 48.7694 31.5295 47.8335 33.2891C46.8976 35.0488 46.458 37.0299 46.5618 39.0203C46.6656 41.0107 47.3089 42.9353 48.4228 44.588L68.2078 35.85C67.6251 33.4581 66.2561 31.3311 64.3202 29.8101C62.3843 28.2891 59.9937 27.4622 57.5318 27.462V27.462ZM51.0018 39.13C50.8771 38.2251 50.9475 37.304 51.2083 36.4286C51.4691 35.5532 51.9143 34.7438 52.514 34.0547C53.1136 33.3656 53.8538 32.8129 54.6848 32.4337C55.5158 32.0544 56.4184 31.8575 57.3318 31.856C58.2748 31.855 59.2062 32.0631 60.059 32.4653C60.9118 32.8675 61.6649 33.4538 62.2638 34.182L51.0018 39.13Z" fill="white"/>
<path d="M53.7231 44.264C55.1305 44.8963 56.6793 45.1474 58.2144 44.9923C59.7494 44.8371 61.2167 44.2811 62.4691 43.38L65.6401 46.555C63.8101 48.3847 61.4023 49.5233 58.8269 49.7769C56.2516 50.0306 53.6679 49.3835 51.5161 47.946L53.7231 44.264Z" fill="white"/>
<path d="M84.338 35.849C83.6765 37.2085 83.5183 38.7585 83.8916 40.2236C84.2648 41.6887 85.1453 42.9741 86.3766 43.8514C87.6079 44.7287 89.1104 45.1412 90.617 45.0155C92.1237 44.8898 93.537 44.2342 94.606 43.165L97.825 46.721C95.9026 48.5657 93.3849 49.6637 90.725 49.8173C88.0651 49.9709 85.4378 49.1701 83.3158 47.559C81.1938 45.9479 79.7166 43.6322 79.1499 41.0288C78.5833 38.4255 78.9645 35.7053 80.225 33.358L84.338 35.849Z" fill="white"/>
<path d="M85.8859 33.8291C86.9754 32.8804 88.3542 32.3287 89.7974 32.2639C91.2406 32.1991 92.6632 32.6251 93.8333 33.4723C95.0035 34.3196 95.8521 35.5382 96.241 36.9295C96.6299 38.3208 96.5361 39.8029 95.9749 41.1341L100.222 43.3801C101.308 41.0539 101.561 38.425 100.938 35.9345C100.315 33.4441 98.8547 31.2436 96.8016 29.7024C94.7486 28.1611 92.2279 27.373 89.6626 27.4702C87.0973 27.5674 84.6434 28.5439 82.7129 30.236L85.8859 33.8291Z" fill="#BDD853"/>
</svg>
