<svg xmlns="http://www.w3.org/2000/svg" width="274" height="180.439" viewBox="0 0 274 180.439">
    <g id="Group_19" data-name="Group 19" transform="translate(-149.375 -946.45)">
        <path id="Subtraction_1" fill="#007858" stroke="rgba(0,0,0,0)" stroke-miterlimit="10" d="M-1718.3 4550.134h-.13a90.263 90.263 0 0 1-53.159-17.464c-.441-.322-1.8-1.213-3.11-2.075l-.016-.01h-.008l-.01-.007c-1.657-1.088-3.537-2.323-4.614-3.084a35.711 35.711 0 0 0-8.712-4.683 27.118 27.118 0 0 0-9.184-1.532c-4.35 0-9.332.882-15.679 2.776a66.942 66.942 0 0 1-21.208 3.438h-.027a66.856 66.856 0 0 1-47.534-19.645 66.571 66.571 0 0 1-19.687-47.436 66.551 66.551 0 0 1 19.688-47.42 66.853 66.853 0 0 1 47.531-19.644h.081a66.842 66.842 0 0 1 23.634 4.3c1.014.381 3.983 1.4 4.549 1.537a34.609 34.609 0 0 0 8.513 1.184 24.342 24.342 0 0 0 4.977-.5 26.652 26.652 0 0 0 4.938-1.551 50.778 50.778 0 0 0 10.748-6.491c.377-.284 7.363-5.265 8.316-5.908a89.338 89.338 0 0 1 49.966-15.218h.141a89.435 89.435 0 0 1 63.582 26.278 89.022 89.022 0 0 1 26.337 63.436 89.044 89.044 0 0 1-26.337 63.45 89.432 89.432 0 0 1-63.586 26.269zm-12.173-126.5v52.106a11.6 11.6 0 0 0 1.726 6.44 9.836 9.836 0 0 0 4.372 3.695l8.89 3.7 4.233-10.241-8.98-3.736v-51.967zm-77.874 0v52.106a11.578 11.578 0 0 0 1.726 6.44 9.848 9.848 0 0 0 4.374 3.695l8.881 3.7 4.237-10.241-8.977-3.736v-51.967zm-21.007 38.847c0 1.859 0 14.919.007 14.945a13.467 13.467 0 0 0 .49 3.712 10.117 10.117 0 0 0 1.233 2.738 9.873 9.873 0 0 0 4.379 3.7l5.021 2 4.245-10.261-4.419-1.771v-15.066a26.992 26.992 0 0 0-.525-5.4 26.663 26.663 0 0 0-1.543-5.033 26.783 26.783 0 0 0-2.452-4.559 26.979 26.979 0 0 0-3.257-3.977 26.96 26.96 0 0 0-3.953-3.285 26.764 26.764 0 0 0-4.54-2.485 26.615 26.615 0 0 0-5.022-1.579 26.969 26.969 0 0 0-5.4-.563h-.1a26.993 26.993 0 0 0-5.389.542 26.619 26.619 0 0 0-5.011 1.553 26.759 26.759 0 0 0-4.542 2.458 26.971 26.971 0 0 0-3.961 3.257 26.992 26.992 0 0 0-3.272 3.949 26.8 26.8 0 0 0-2.476 4.535 26.642 26.642 0 0 0-1.572 5.013 26.99 26.99 0 0 0-.561 5.385v.189a27.243 27.243 0 0 0 .545 5.423 26.869 26.869 0 0 0 1.563 5.053 26.943 26.943 0 0 0 2.47 4.57 27.072 27.072 0 0 0 3.271 3.982 27.032 27.032 0 0 0 3.965 3.286 26.793 26.793 0 0 0 4.55 2.48 26.571 26.571 0 0 0 5.028 1.568 26.906 26.906 0 0 0 5.4.547h.018a26.591 26.591 0 0 0 6.128-.716 26.649 26.649 0 0 0 5.806-2.114l-4.336-10.152a15.681 15.681 0 0 1-7.6 1.969h-.014a15.788 15.788 0 0 1-6.167-1.268 15.836 15.836 0 0 1-5.032-3.411 15.854 15.854 0 0 1-3.391-5.046 15.8 15.8 0 0 1-1.243-6.173h.005a15.849 15.849 0 0 1 .9-5.294 15.87 15.87 0 0 1 2.531-4.578 15.875 15.875 0 0 1 3.877-3.512 15.846 15.846 0 0 1 4.946-2.093 15.434 15.434 0 0 1 3.6-.428 15.41 15.41 0 0 1 3.324.365 15.4 15.4 0 0 1 3.187 1.081 15.89 15.89 0 0 1 6.757 5.871 15.891 15.891 0 0 1 2.522 8.588zm59.662 13.6l-5.849 9.364a26.35 26.35 0 0 0 13.781 4.132h.435a26.484 26.484 0 0 0 5.141-.505 26.422 26.422 0 0 0 4.909-1.481 26.425 26.425 0 0 0 4.527-2.4 26.469 26.469 0 0 0 4.014-3.265l-7.671-7.923a15.409 15.409 0 0 1-5.022 3.35 15.417 15.417 0 0 1-5.917 1.175h-.246a15.427 15.427 0 0 1-8.1-2.448zm63.074-24.94a27.054 27.054 0 0 0-1.847 5.1 26.722 26.722 0 0 0-.772 5.21 26.851 26.851 0 0 0 .252 5.173 27.03 27.03 0 0 0 1.226 4.993 27.05 27.05 0 0 0 2.151 4.671 26.872 26.872 0 0 0 3.026 4.2 26.732 26.732 0 0 0 3.85 3.594 27.051 27.051 0 0 0 4.624 2.841 26.686 26.686 0 0 0 5.7 1.988 26.692 26.692 0 0 0 5.875.656 26.849 26.849 0 0 0 4.863-.446 26.764 26.764 0 0 0 4.706-1.326 26.538 26.538 0 0 0 8.439-5.219l-7.4-8.154a15.633 15.633 0 0 1-4.971 3.074 15.67 15.67 0 0 1-5.635 1.044 15.725 15.725 0 0 1-3.457-.385 15.73 15.73 0 0 1-3.355-1.171 15.722 15.722 0 0 1-4.986-3.791 15.77 15.77 0 0 1-3.049-5.224 15.774 15.774 0 0 1-.873-5.985 15.723 15.723 0 0 1 1.537-6.072v-.007zm-54.857-14.581a26.7 26.7 0 0 0-21.947 11.5 26.424 26.424 0 0 0-3.486 7.1 26.455 26.455 0 0 0-1.23 7.642 26.459 26.459 0 0 0 1.031 7.671 26.423 26.423 0 0 0 3.3 7.182l48.365-20.579a26.292 26.292 0 0 0-3.387-8.069 26.746 26.746 0 0 0-4.235-5.146 26.741 26.741 0 0 0-5.29-3.888 26.757 26.757 0 0 0-6.078-2.481 26.745 26.745 0 0 0-6.6-.925h-.413zm78.828 10.7a15.683 15.683 0 0 1 3.455.386 15.72 15.72 0 0 1 3.354 1.172 15.712 15.712 0 0 1 4.994 3.789 15.759 15.759 0 0 1 3.051 5.227 15.758 15.758 0 0 1 .872 5.989 15.711 15.711 0 0 1-1.544 6.075l9.91 4.772a26.954 26.954 0 0 0 1.862-5.09 26.619 26.619 0 0 0 .786-5.2 26.746 26.746 0 0 0-.239-5.166 26.935 26.935 0 0 0-1.214-4.988 26.967 26.967 0 0 0-2.139-4.667 26.76 26.76 0 0 0-3.016-4.2 26.64 26.64 0 0 0-3.84-3.592 26.933 26.933 0 0 0-4.616-2.84 26.784 26.784 0 0 0-5.737-2.013 26.751 26.751 0 0 0-5.921-.663 26.892 26.892 0 0 0-4.863.445 26.882 26.882 0 0 0-4.708 1.323 26.629 26.629 0 0 0-8.45 5.2l7.4 8.163a15.606 15.606 0 0 1 4.965-3.078 15.627 15.627 0 0 1 5.637-1.047zm-94.413 17.541a15.009 15.009 0 0 1-.094-1.9 15.549 15.549 0 0 1 .35-3.075 15.519 15.519 0 0 1 .955-2.944 15.73 15.73 0 0 1 14.393-9.394h.259a15.841 15.841 0 0 1 3.432.431 15.634 15.634 0 0 1 3.155 1.125 15.864 15.864 0 0 1 2.793 1.73 15.809 15.809 0 0 1 2.375 2.27l-27.617 11.755z" data-name="Subtraction 1" transform="translate(2051.255 -3423.745)"/>
    </g>
</svg>
